<svg
                          version="1.1"
                          xmlns="http://www.w3.org/2000/svg"
                          xmlnsXlink="http://www.w3.org/1999/xlink"
                          className="me-2 h-5 w-5 rounded-full"
                          viewBox="0,0,256,256"
                        >
                          <defs>
                            <linearGradient
                              x1="2"
                              y1="24"
                              x2="46"
                              y2="24"
                              gradientUnits="userSpaceOnUse"
                              id="color-1"
                            >
                              <stop offset="0.098" stop-color="#d5dff5" stop-opacity="0.2"></stop>
                              <stop offset="0.23" stop-color="#d5dff5" stop-opacity="0.7"></stop>
                              <stop offset="0.372" stop-color="#d5dff5" stop-opacity="0.2"></stop>
                              <stop offset="0.472" stop-color="#d5dff5" stop-opacity="0"></stop>
                              <stop offset="0.563" stop-color="#eaebed" stop-opacity="0"></stop>
                              <stop offset="0.57" stop-color="#ececec" stop-opacity="0"></stop>
                              <stop offset="0.746" stop-color="#ebebeb" stop-opacity="0.5"></stop>
                              <stop offset="0.932" stop-color="#ebebeb" stop-opacity="0"></stop>
                            </linearGradient>
                            <linearGradient
                              x1="2"
                              y1="24"
                              x2="46"
                              y2="24"
                              gradientUnits="userSpaceOnUse"
                              id="color-2"
                            >
                              <stop offset="0.004" stop-color="#000b24"></stop>
                              <stop offset="0.149" stop-color="#000b24" stop-opacity="0"></stop>
                              <stop offset="0.396" stop-color="#000b24" stop-opacity="0.018"></stop>
                              <stop offset="0.545" stop-color="#000b24" stop-opacity="0.4"></stop>
                              <stop offset="0.715" stop-color="#000b24" stop-opacity="0.018"></stop>
                              <stop offset="0.864" stop-color="#000b24" stop-opacity="0.018"></stop>
                              <stop offset="0.873" stop-color="#000b23" stop-opacity="0.079"></stop>
                              <stop offset="1" stop-color="#000512" stop-opacity="0.9"></stop>
                            </linearGradient>
                          </defs>
                          <g
                            fill="none"
                            fill-rule="nonzero"
                            stroke="none"
                            stroke-width="1"
                            stroke-linecap="butt"
                            stroke-linejoin="miter"
                            stroke-miterlimit="10"
                            stroke-dasharray=""
                            stroke-dashoffset="0"
                            font-family="none"
                            font-weight="none"
                            font-size="none"
                            text-anchor="none"
                          >
                            <g transform="scale(5.33333,5.33333)">
                              <path
                                d="M44.064,13.043c0,0.935 1.936,1.212 1.936,1.212c0,1.854 0,3.708 0,5.562c0,0 -1.426,3.086 -1.426,4.481c0,1.394 1.426,3.886 1.426,3.886c0,1.853 0,3.706 0,5.559c0,0 -1.809,0.959 -1.809,1.895c-1.64,0.561 -3.111,2.074 -3.111,2.074c-4.471,0.618 -8.942,0.15 -13.413,-0.551c0,0 -2.445,-1.718 -3.667,-1.927c-1.222,-0.209 -3.666,0.707 -3.666,0.707c-4.472,-0.702 -8.944,-1.17 -13.416,-0.551c0,0 -2.162,-0.547 -3.801,0.014c0,-0.936 -1.117,-1.661 -1.117,-1.661c0,-1.853 0,-3.706 0,-5.559c0,0 0.957,-2.945 0.957,-4.439c0,-1.295 -0.957,-3.928 -0.957,-3.928c0,-2.789 0,-5.579 0,-8.368c6.111,-2.092 12.222,-1.569 18.333,-0.61c0,0 2.211,1.654 3.433,1.863c1.222,0.209 3.9,-0.643 3.9,-0.643c4.472,0.702 8.944,1.17 13.416,0.551c0,0 1.342,0.994 2.982,0.433z"
                                fill="#012473"
                              ></path>
                              <path
                                d="M46,11.449c0,0.935 0,1.871 0,2.806c-3.249,2.966 -6.498,5.192 -9.747,7.007c-2.444,1.365 -4.889,2.498 -7.333,3.537c2.444,1.75 4.889,3.407 7.333,4.83c3.249,1.892 6.498,3.373 9.747,4.114c0,0.935 0,1.871 0,2.806c-1.64,0.561 -3.28,0.934 -4.92,1.161c-4.471,-1.932 -8.943,-4.951 -13.414,-8.204c-1.222,-0.889 -2.444,-1.795 -3.667,-2.702c-1.222,0.488 -2.444,0.976 -3.667,1.482c-4.471,1.849 -8.943,3.932 -13.414,7.102c-1.64,0.227 -3.28,0.6 -4.92,1.161c0,-0.935 0,-1.871 0,-2.806c3.249,-2.966 6.498,-5.192 9.747,-7.007c2.444,-1.365 4.889,-2.498 7.333,-3.537c-2.444,-1.75 -4.889,-3.407 -7.333,-4.83c-3.247,-1.891 -6.496,-3.372 -9.745,-4.113c0,-0.935 0,-1.871 0,-2.806c1.64,-0.561 3.28,-0.934 4.92,-1.161c4.471,1.932 8.943,4.951 13.414,8.204c1.222,0.889 2.444,1.795 3.667,2.702c1.222,-0.488 2.444,-0.976 3.667,-1.482c4.471,-1.849 8.943,-3.932 13.414,-7.102c1.638,-0.227 3.278,-0.6 4.918,-1.162z"
                                fill="#ffffff"
                              ></path>
                              <path
                                d="M27.279,24.549c2.444,1.785 4.889,3.508 7.333,5.028c3.796,2.362 7.591,4.236 11.387,5.103c0,0.624 0,1.247 0,1.871c-1.093,0.374 -2.187,0.665 -3.28,0.884c-4.889,-1.808 -9.778,-5.04 -14.666,-8.581c-0.618,-0.448 -1.236,-0.9 -1.854,-1.355c-0.733,-0.54 -1.467,-1.084 -2.2,-1.628c-0.733,0.293 -1.467,0.586 -2.2,0.882c-0.618,0.25 -1.236,0.503 -1.854,0.76c-4.889,2.038 -9.778,4.384 -14.666,8.153c-1.093,0.219 -2.187,0.51 -3.28,0.884c0,-0.624 0,-1.247 0,-1.871c3.796,-3.465 7.591,-5.921 11.387,-7.89c2.444,-1.268 4.889,-2.335 7.333,-3.339c-2.444,-1.785 -4.889,-3.508 -7.333,-5.028c-3.795,-2.361 -7.59,-4.236 -11.386,-5.102c0,-0.624 0,-1.247 0,-1.871c1.093,-0.374 2.187,-0.665 3.28,-0.884c4.889,1.808 9.778,5.04 14.666,8.581c0.618,0.448 1.236,0.9 1.854,1.355c0.733,0.54 1.467,1.084 2.2,1.628c0.733,-0.293 1.467,-0.586 2.2,-0.882c0.618,-0.25 1.236,-0.503 1.854,-0.76c4.889,-2.038 9.778,-4.384 14.666,-8.153c1.093,-0.219 2.187,-0.51 3.28,-0.884c0,0.624 0,1.247 0,1.871c-3.796,3.465 -7.591,5.921 -11.387,7.89c-2.445,1.267 -4.889,2.334 -7.334,3.338z"
                                fill="#c8102e"
                              ></path>
                              <path
                                d="M27.667,37.161c-2.444,-0.384 -4.889,-0.837 -7.333,-1.22c0,-2.789 0,-5.578 0,-8.367c-6.112,-0.959 -12.223,-1.482 -18.334,0.61c0,0 0,-5.578 0,-8.367c6.111,-2.092 12.222,-1.569 18.333,-0.61c0,-2.789 0,-5.578 0,-8.367c2.444,0.384 4.889,0.837 7.333,1.22c0,2.789 0,5.578 0,8.367c6.111,0.959 12.222,1.482 18.333,-0.61c0,2.789 0,5.578 0,8.367c-6.111,2.092 -12.222,1.569 -18.333,0.61c0.001,2.789 0.001,5.578 0.001,8.367z"
                                fill="#ffffff"
                              ></path>
                              <path
                                d="M26.2,36.924c-1.467,-0.244 -2.933,-0.502 -4.4,-0.746c0,-3.347 0,-6.694 0,-10.041c-6.6,-1.095 -13.2,-1.886 -19.8,0.373c0,-1.673 0,-3.347 0,-5.02c6.6,-2.259 13.2,-1.468 19.8,-0.373c0,-3.347 0,-6.694 0,-10.041c1.467,0.244 2.933,0.502 4.4,0.746c0,3.347 0,6.694 0,10.041c6.6,1.096 13.2,1.886 19.8,-0.373c0,1.673 0,3.347 0,5.02c-6.6,2.259 -13.2,1.468 -19.8,0.373c0,3.347 0,6.694 0,10.041z"
                                fill="#c8102e"
                              ></path>
                              <path
                                d="M46,11.449c0,8.367 0,16.734 0,25.102c-14.667,5.02 -29.333,-5.02 -44,0c0,-8.367 0,-16.734 0,-25.102c14.667,-5.02 29.333,5.021 44,0z"
                                fill="url(#color-1)"
                                opacity="0.4"
                              ></path>
                              <path
                                d="M46,11.449c0,8.367 0,16.734 0,25.102c-14.667,5.02 -29.333,-5.02 -44,0c0,-8.367 0,-16.734 0,-25.102c14.667,-5.02 29.333,5.021 44,0z"
                                fill="url(#color-2)"
                                opacity="0.7"
                              ></path>
                            </g>
                          </g>
                        </svg>